<?xml version="1.0" standalone="no"?>
<!DOCTYPE svg PUBLIC "-//W3C//DTD SVG 20010904//EN"
 "http://www.w3.org/TR/2001/REC-SVG-20010904/DTD/svg10.dtd">
<svg version="1.0" xmlns="http://www.w3.org/2000/svg"
 width="2560.000000pt" height="700.000000pt" viewBox="0 0 2560.000000 700.000000"
 preserveAspectRatio="xMidYMid meet">

<g transform="translate(0.000000,700.000000) scale(0.100000,-0.100000)"
fill="#000000" stroke="none">
<path d="M5205 1388 c-4 -13 -215 -1025 -215 -1034 0 -2 24 -4 54 -4 l55 0 11
58 c89 433 85 418 125 454 121 106 229 144 276 97 19 -19 21 -29 16 -83 -4
-33 -27 -157 -52 -274 -25 -117 -45 -222 -45 -232 0 -17 7 -20 49 -20 28 0 52
4 55 8 7 12 105 487 112 545 8 67 -13 119 -58 147 -27 17 -46 20 -98 18 -75
-4 -148 -37 -222 -99 -27 -22 -48 -38 -48 -35 0 3 20 103 45 222 25 119 45
222 45 230 0 18 -98 20 -105 2z"/>
<path d="M8405 1388 c-5 -14 -215 -1022 -215 -1032 0 -3 25 -6 55 -6 30 0 55
3 55 8 0 7 84 414 95 457 6 25 104 104 172 139 64 32 115 34 144 5 19 -19 21
-29 16 -83 -4 -33 -28 -164 -55 -289 -36 -170 -46 -230 -37 -234 7 -2 32 -3
56 -1 l44 3 52 245 c65 305 70 344 50 393 -47 112 -231 99 -373 -26 -24 -21
-44 -35 -44 -30 0 4 20 104 45 221 25 118 45 220 45 228 0 18 -98 20 -105 2z"/>
<path d="M20680 1394 c0 -3 -47 -233 -105 -511 -58 -278 -105 -511 -105 -519
0 -11 24 -14 119 -14 146 0 207 11 291 52 217 106 331 401 222 577 -73 119
-243 122 -359 8 -24 -22 -43 -36 -43 -29 0 6 20 107 45 223 25 117 45 214 45
216 0 1 -25 3 -55 3 -30 0 -55 -3 -55 -6z m295 -436 c103 -81 54 -332 -89
-449 -59 -50 -122 -72 -215 -77 l-84 -5 6 24 c3 13 22 105 42 204 l37 180 60
59 c34 32 75 64 92 72 49 21 119 18 151 -8z"/>
<path d="M6762 1279 c-19 -81 -19 -80 45 -77 62 3 60 1 77 91 l7 37 -59 0 -59
0 -11 -51z"/>
<path d="M12171 1273 c-6 -31 -11 -60 -11 -65 0 -5 26 -8 57 -6 62 3 60 1 77
91 l7 37 -59 0 -59 0 -12 -57z"/>
<path d="M15046 1315 c-3 -8 -8 -37 -12 -65 l-7 -50 57 0 c53 0 56 1 62 28 8
35 14 63 20 85 5 15 -2 17 -54 17 -44 0 -61 -4 -66 -15z"/>
<path d="M15445 1190 l-28 -140 -74 0 c-50 0 -75 -4 -77 -12 -3 -7 -7 -25 -10
-40 l-6 -28 75 0 c73 0 75 -1 70 -22 -34 -147 -85 -418 -85 -451 1 -145 122
-202 270 -127 36 18 67 34 69 36 7 6 -21 64 -31 64 -5 0 -25 -8 -46 -19 -71
-35 -120 -34 -144 3 -16 23 -6 108 35 306 l43 205 82 3 c54 2 84 7 87 15 2 7
6 24 9 40 l6 27 -80 0 c-95 0 -90 -13 -55 153 14 64 25 119 25 122 0 3 -24 5
-54 5 l-53 0 -28 -140z"/>
<path d="M16017 1323 c-2 -5 -7 -25 -11 -46 -4 -21 -10 -45 -13 -53 -5 -12 5
-15 53 -12 63 3 60 1 77 86 l7 32 -55 0 c-29 0 -56 -3 -58 -7z"/>
<path d="M16255 1318 c-2 -7 -8 -34 -13 -60 l-10 -48 58 0 58 0 7 46 c3 26 9
53 12 60 4 11 -8 14 -51 14 -37 0 -58 -4 -61 -12z"/>
<path d="M16760 1273 c-7 -32 -20 -94 -29 -138 l-17 -80 -76 -3 -76 -3 -6 -31
c-3 -17 -6 -34 -6 -39 0 -5 33 -9 74 -9 l73 0 -43 -207 c-24 -115 -44 -233
-44 -263 0 -147 107 -204 257 -136 78 36 87 46 72 80 -15 31 -19 32 -72 5 -52
-27 -111 -30 -134 -6 -26 26 -21 82 28 320 l43 207 82 0 c76 0 82 1 88 23 15
55 12 57 -74 57 -78 0 -80 1 -75 23 3 12 14 65 25 117 11 52 22 105 25 118 5
21 2 22 -49 22 l-55 0 -11 -57z"/>
<path d="M2991 1283 c-6 -21 -11 -41 -11 -45 0 -5 70 -8 155 -8 85 0 155 -2
155 -4 0 -2 -40 -199 -90 -437 -49 -237 -90 -434 -90 -436 0 -1 27 -3 60 -3
33 0 60 3 60 6 0 6 165 809 175 852 5 22 8 22 149 22 l144 0 6 31 c3 17 6 38
6 45 0 12 -60 14 -355 14 l-354 0 -10 -37z"/>
<path d="M10380 1263 c-7 -32 -36 -175 -66 -318 -62 -300 -67 -371 -30 -451
47 -102 151 -156 301 -157 194 -1 325 80 384 237 18 48 161 701 161 735 0 8
-17 11 -57 9 l-56 -3 -68 -325 c-37 -179 -78 -352 -90 -385 -15 -42 -38 -76
-73 -111 -56 -57 -98 -74 -181 -74 -142 0 -229 78 -228 205 1 46 93 527 130
673 5 21 2 22 -55 22 l-61 0 -11 -57z"/>
<path d="M17747 1298 c-7 -28 -197 -938 -197 -944 0 -8 109 -4 114 4 2 4 23
98 46 207 23 110 44 210 47 223 l5 22 254 0 254 0 -5 -22 c-18 -79 -85 -412
-85 -424 0 -23 107 -20 114 4 8 24 196 932 196 943 0 6 -26 9 -57 7 l-57 -3
-28 -135 c-15 -74 -35 -168 -44 -207 l-15 -73 -256 0 -255 0 5 23 c3 12 22
101 42 197 20 96 38 181 40 188 3 9 -12 12 -54 12 -53 0 -59 -2 -64 -22z"/>
<path d="M3890 1061 c-56 -17 -108 -52 -158 -105 -167 -176 -175 -475 -15
-576 99 -63 211 -59 343 12 41 22 76 41 78 43 3 3 -17 39 -35 64 -1 2 -33 -12
-71 -32 -81 -43 -133 -53 -189 -38 -85 23 -132 91 -133 193 0 95 -19 88 246
88 l234 0 0 83 c0 190 -69 277 -215 276 -33 0 -71 -4 -85 -8z m141 -84 c40
-27 58 -71 58 -144 l1 -53 -175 0 c-96 0 -175 3 -175 6 0 25 63 124 99 155 69
61 136 74 192 36z"/>
<path d="M4672 1055 c-104 -29 -194 -91 -258 -178 -120 -162 -110 -402 19
-497 51 -37 128 -55 201 -46 62 8 216 79 216 99 0 7 -8 22 -18 35 l-17 23 -58
-31 c-220 -120 -380 45 -286 295 16 44 38 76 83 121 78 77 146 106 261 109
l79 2 14 33 c7 18 10 35 7 39 -14 13 -191 10 -243 -4z"/>
<path d="M6175 1046 c-28 -12 -77 -44 -109 -70 -32 -26 -59 -46 -61 -44 -3 2
2 26 10 53 8 26 15 52 15 57 0 4 -24 8 -53 8 l-53 0 -68 -327 c-37 -181 -70
-338 -73 -350 -5 -22 -2 -23 51 -23 31 0 56 2 56 5 0 3 22 111 50 240 49 234
49 235 86 267 157 139 294 157 294 39 0 -22 -22 -148 -50 -281 -27 -133 -50
-248 -50 -256 0 -10 13 -14 49 -14 28 0 52 4 56 9 9 15 104 479 111 541 8 70
-12 122 -58 150 -47 29 -137 27 -203 -4z"/>
<path d="M7133 1049 c-172 -66 -186 -274 -25 -365 118 -67 142 -93 142 -153 0
-36 -34 -80 -76 -97 -43 -18 -147 -17 -199 1 -21 8 -40 13 -42 12 -1 -2 -9
-19 -18 -39 l-15 -37 48 -14 c74 -24 127 -28 200 -17 128 21 203 87 210 188 7
99 -28 148 -161 222 -70 39 -90 66 -89 121 1 49 36 92 90 110 34 11 154 8 197
-6 17 -5 23 0 34 30 7 20 11 38 9 39 -1 2 -24 8 -50 15 -74 18 -195 13 -255
-10z"/>
<path d="M7872 1055 c-104 -29 -194 -91 -258 -178 -119 -162 -110 -405 19
-498 50 -36 129 -54 201 -45 62 8 216 79 216 99 0 7 -8 22 -18 35 l-17 23 -58
-31 c-104 -57 -208 -51 -266 15 -89 102 -54 296 74 414 72 65 145 93 249 96
l78 2 14 33 c8 18 12 36 8 39 -13 13 -190 10 -242 -4z"/>
<path d="M9279 1056 c-58 -21 -105 -53 -155 -109 -62 -69 -102 -155 -116 -254
-10 -69 -9 -90 5 -149 21 -82 57 -137 111 -169 99 -58 207 -52 336 17 41 22
76 41 78 43 2 2 -1 12 -7 22 -28 49 -25 49 -103 7 -62 -32 -82 -38 -133 -38
-73 0 -116 21 -150 73 -28 42 -41 118 -31 175 l7 36 234 0 235 0 0 88 c0 141
-30 209 -110 250 -51 25 -142 29 -201 8z m163 -83 c31 -27 48 -76 48 -138 l0
-55 -175 0 c-96 0 -175 3 -175 6 0 22 70 132 101 157 68 58 156 71 201 30z"/>
<path d="M11607 1056 c-46 -17 -105 -55 -157 -103 -45 -40 -46 -38 -25 31 8
27 15 53 15 58 0 4 -24 8 -53 8 l-53 0 -69 -332 c-38 -183 -71 -341 -73 -350
-4 -16 3 -18 52 -18 31 0 56 1 56 3 0 7 101 481 103 483 1 0 28 22 60 48 112
89 212 121 250 78 27 -29 21 -90 -33 -346 -27 -131 -50 -244 -50 -252 0 -10
14 -14 54 -14 50 0 54 2 59 28 70 335 107 523 107 550 0 50 -25 99 -62 122
-39 24 -123 26 -181 6z"/>
<path d="M12438 1058 c-27 -6 -48 -14 -48 -20 0 -10 138 -641 146 -670 4 -14
16 -18 48 -18 24 0 48 6 54 13 6 6 96 159 200 339 l190 328 -45 20 c-25 11
-47 20 -48 20 -1 0 -74 -129 -161 -286 -133 -239 -160 -282 -166 -262 -4 13
-30 141 -59 286 -29 144 -55 261 -58 261 -3 -1 -27 -6 -53 -11z"/>
<path d="M13329 1056 c-206 -73 -334 -366 -247 -566 66 -153 231 -198 409
-110 100 49 104 52 84 89 -8 17 -18 31 -21 31 -2 0 -37 -17 -76 -37 -89 -47
-170 -52 -228 -16 -63 39 -97 124 -85 213 l7 50 234 0 234 0 2 43 c8 167 -28
258 -116 298 -48 22 -143 24 -197 5z m141 -69 c45 -23 70 -73 70 -143 l0 -64
-175 0 -175 0 15 38 c55 132 180 212 265 169z"/>
<path d="M14115 1051 c-23 -10 -59 -39 -82 -65 l-41 -47 14 53 c7 29 14 54 14
56 0 1 -25 2 -55 2 -30 0 -55 -4 -55 -8 0 -4 -31 -158 -70 -342 -38 -184 -70
-338 -70 -342 0 -11 98 -10 104 1 3 5 28 114 54 244 47 226 50 237 86 280 50
61 113 92 171 84 l43 -6 11 44 c6 24 11 49 11 54 0 18 -92 12 -135 -8z"/>
<path d="M14479 1054 c-25 -7 -65 -31 -88 -51 -74 -66 -86 -181 -27 -258 13
-16 59 -51 104 -77 44 -27 87 -59 96 -73 37 -56 8 -133 -60 -161 -43 -18 -147
-17 -199 1 -21 8 -40 13 -40 12 0 -1 -8 -19 -17 -39 l-17 -37 47 -15 c74 -23
136 -28 203 -16 150 27 221 108 206 236 -6 61 -43 104 -134 159 -95 57 -112
77 -113 132 0 51 34 96 87 114 35 11 154 8 199 -6 18 -6 23 -1 33 26 16 46 16
46 -39 58 -69 15 -185 13 -241 -5z"/>
<path d="M16075 1056 c-37 -12 -141 -62 -174 -85 -11 -7 -10 -14 8 -39 l22
-31 80 42 c69 36 90 42 141 42 54 0 63 -3 80 -26 18 -24 19 -30 6 -94 l-14
-69 -96 -17 c-237 -42 -339 -113 -355 -248 -14 -123 96 -217 225 -190 46 9 77
27 158 90 7 6 11 -1 12 -24 1 -22 9 -39 28 -55 31 -27 61 -24 137 14 47 24 55
37 38 63 -8 12 -14 13 -36 3 -38 -17 -63 -15 -70 7 -3 11 15 119 40 241 48
236 52 280 32 320 -24 48 -73 70 -151 69 -39 0 -89 -6 -111 -13z m113 -433
c-22 -107 -34 -127 -107 -174 -63 -41 -131 -41 -172 0 -59 59 -30 160 61 210
45 25 164 59 211 60 l26 1 -19 -97z"/>
<path d="M18830 1047 c-77 -26 -160 -73 -160 -90 0 -7 8 -22 18 -34 l17 -23
78 41 c93 48 171 62 212 35 28 -19 31 -42 14 -127 l-11 -55 -101 -16 c-231
-37 -346 -122 -347 -255 0 -60 13 -99 43 -131 76 -82 206 -74 312 19 l35 31 0
-30 c0 -45 30 -76 73 -75 34 1 147 50 147 63 0 3 -6 15 -14 25 -12 16 -17 17
-44 6 -42 -18 -62 -8 -62 28 0 17 18 117 41 223 59 281 55 340 -26 374 -51 21
-149 17 -225 -9z m150 -334 c-1 -5 -9 -48 -19 -96 -16 -77 -24 -94 -57 -128
-72 -73 -156 -91 -212 -44 -58 49 -51 127 17 188 40 36 78 52 171 73 66 14
100 17 100 7z"/>
<path d="M19707 1055 c-41 -14 -136 -73 -176 -109 l-24 -21 7 33 c3 17 9 46
12 62 l7 30 -51 0 c-40 0 -52 -4 -56 -17 -11 -38 -136 -649 -136 -665 0 -26
96 -26 104 0 5 16 96 460 96 468 0 2 28 25 63 50 74 56 152 94 190 94 34 0 67
-32 67 -66 0 -15 -25 -146 -55 -291 -30 -146 -55 -267 -55 -269 0 -8 99 -4
104 5 3 5 26 107 51 228 25 120 47 227 50 238 5 23 79 82 157 125 90 50 158
34 158 -37 0 -17 -25 -149 -55 -294 -30 -145 -55 -265 -55 -266 0 -2 25 -3 55
-3 48 0 55 3 60 23 40 168 105 512 105 555 0 172 -170 192 -357 43 -52 -40
-53 -41 -53 -17 0 95 -100 142 -213 101z"/>
<path d="M22385 1051 c-23 -10 -60 -40 -83 -66 l-42 -48 15 49 c8 27 15 52 15
57 0 4 -24 7 -53 7 l-53 0 -68 -327 c-37 -181 -70 -338 -73 -350 -5 -22 -2
-23 51 -23 31 0 56 4 56 8 0 5 22 115 50 246 48 228 51 239 87 282 50 59 111
88 168 81 l43 -6 11 44 c6 24 11 49 11 54 0 18 -92 12 -135 -8z"/>
<path d="M22763 1054 c-52 -19 -119 -83 -144 -137 -38 -85 -18 -203 42 -245
28 -20 24 -26 -33 -53 -69 -32 -118 -75 -118 -104 0 -30 30 -51 99 -71 l54
-16 -64 -34 c-147 -77 -185 -190 -98 -289 65 -73 225 -105 359 -71 182 46 281
209 196 321 -39 50 -95 78 -237 119 -70 19 -138 40 -153 46 -39 14 -33 42 16
70 35 19 56 23 137 24 73 1 105 6 135 20 50 25 97 73 121 122 24 51 25 152 2
188 -9 14 -17 28 -17 31 0 3 27 5 60 5 56 0 61 2 70 26 6 14 10 29 10 34 0 5
-55 11 -122 14 -68 3 -157 8 -198 11 -52 3 -88 0 -117 -11z m190 -83 c39 -38
48 -118 23 -185 -48 -127 -208 -152 -260 -41 -30 61 -15 143 37 202 62 71 144
81 200 24z m-118 -597 c102 -33 140 -67 139 -124 -2 -50 -40 -102 -97 -132
-58 -31 -184 -32 -241 -2 -77 40 -102 113 -60 171 24 33 139 113 162 113 9 0
53 -12 97 -26z"/>
<path d="M6715 1038 c-5 -14 -134 -642 -138 -668 -1 -11 10 -16 47 -18 27 -2
52 0 57 5 4 4 37 154 74 333 36 179 69 333 71 343 5 15 -2 17 -51 17 -35 0
-57 -5 -60 -12z"/>
<path d="M12129 1048 c-10 -28 -144 -690 -140 -693 8 -9 100 -5 105 4 4 5 35
152 71 328 36 175 67 328 70 341 5 21 2 22 -50 22 -30 0 -55 -1 -56 -2z"/>
<path d="M14926 723 c-37 -181 -70 -338 -73 -351 -5 -22 -3 -23 53 -20 l58 3
71 348 71 347 -56 0 -56 0 -68 -327z"/>
<path d="M21400 1043 c0 -5 -25 -129 -55 -276 -30 -147 -55 -282 -55 -298 0
-80 58 -132 146 -132 79 0 148 34 238 117 21 20 40 36 41 36 2 0 -3 -24 -11
-52 -22 -85 -21 -88 36 -88 43 0 50 3 55 22 3 13 36 169 73 348 l68 325 -49 3
c-27 2 -52 1 -55 -3 -3 -3 -27 -107 -53 -231 -52 -252 -49 -246 -161 -329 -65
-48 -133 -70 -173 -55 -51 20 -51 35 9 330 31 150 56 277 56 281 0 5 -25 9
-55 9 -30 0 -55 -3 -55 -7z"/>
</g>
</svg>
