<?xml version="1.0" standalone="no"?>
<!DOCTYPE svg PUBLIC "-//W3C//DTD SVG 20010904//EN"
 "http://www.w3.org/TR/2001/REC-SVG-20010904/DTD/svg10.dtd">
<svg version="1.0" xmlns="http://www.w3.org/2000/svg"
 width="234.000000pt" height="216.000000pt" viewBox="0 0 234.000000 216.000000"
 preserveAspectRatio="xMidYMid meet">

<g transform="translate(0.000000,216.000000) scale(0.100000,-0.100000)"
fill="#000000" stroke="none">
<path d="M1005 1649 c-10 -15 3 -25 16 -12 7 7 7 13 1 17 -6 3 -14 1 -17 -5z"/>
<path d="M770 1623 c0 -6 -3 -18 -6 -27 -3 -9 -2 -16 4 -16 15 0 21 25 11 41
-5 9 -9 9 -9 2z"/>
<path d="M765 1520 c-2 -4 5 -16 18 -26 12 -10 19 -15 15 -10 -4 5 -3 15 3 23
6 7 10 13 8 14 -31 6 -40 6 -44 -1z"/>
<path d="M935 1519 c-11 -4 -15 -8 -10 -8 6 -1 -3 -12 -19 -25 -43 -34 -44
-81 -4 -106 17 -10 37 -16 44 -13 9 3 14 -3 15 -18 1 -21 2 -21 6 -4 3 11 12
24 21 31 13 10 15 27 11 103 0 13 -4 19 -8 13 -4 -6 -12 -8 -20 -3 -7 5 -11
13 -7 19 9 15 -6 21 -29 11z m39 -61 c20 -29 20 -34 -4 -58 -50 -50 -102 11
-58 68 16 19 45 14 62 -10z"/>
<path d="M758 1459 c-21 -12 -24 -49 -6 -67 19 -19 46 -14 64 13 16 24 16 27
-1 45 -20 22 -32 24 -57 9z m46 -15 c19 -19 4 -57 -21 -52 -26 5 -39 34 -24
52 17 20 26 20 45 0z"/>
<path d="M376 1451 c-38 -6 -38 -6 -18 -24 18 -17 20 -32 21 -204 1 -103 3
-188 5 -190 2 -2 15 -1 30 3 23 5 26 11 26 48 0 22 3 64 6 93 l7 51 38 -2 c39
-3 39 -3 39 35 0 27 -5 41 -19 48 -10 6 -21 8 -24 4 -15 -14 -16 26 -3 58 8
19 15 28 16 21 0 -7 -5 -22 -11 -33 -6 -11 -8 -25 -6 -32 2 -7 12 3 21 21 22
43 14 66 -19 60 -22 -5 -25 -2 -25 23 0 31 -5 33 -84 20z m41 -127 c-3 -3 -12
-4 -19 -1 -8 3 -5 6 6 6 11 1 17 -2 13 -5z m33 -44 c0 -5 -2 -10 -4 -10 -3 0
-8 5 -11 10 -3 6 -1 10 4 10 6 0 11 -4 11 -10z"/>
<path d="M1700 1399 c0 -5 5 -7 12 -3 8 5 9 2 5 -9 -8 -21 2 -49 14 -41 5 3 9
0 9 -5 0 -6 -4 -11 -10 -11 -5 0 -10 -6 -10 -14 0 -8 -5 -18 -12 -22 -7 -4 -8
-3 -4 4 4 7 2 12 -3 12 -6 0 -11 -13 -11 -30 l0 -30 -352 -2 -353 -3 350 -2
c193 -2 357 -6 365 -10 8 -3 17 -7 20 -7 3 -1 16 -11 30 -24 13 -12 57 -32 98
-45 93 -28 109 -48 68 -84 -27 -23 -36 -25 -90 -20 -34 3 -71 8 -84 12 -20 7
-21 5 -14 -16 7 -17 22 -27 55 -35 99 -26 197 27 197 106 0 49 -25 74 -92 91
-27 7 -54 21 -59 31 -7 12 -6 18 1 18 6 0 9 8 6 18 -2 9 -7 27 -11 40 -6 21
-4 22 48 22 41 0 58 -5 72 -20 27 -29 35 -25 35 19 0 32 -4 40 -22 45 -42 11
-103 6 -143 -13 l-40 -18 -17 29 c-17 27 -58 40 -58 17z m107 -75 c-3 -3 -12
-4 -19 -1 -8 3 -5 6 6 6 11 1 17 -2 13 -5z m-27 -38 c0 -3 -4 -8 -10 -11 -5
-3 -10 -1 -10 4 0 6 5 11 10 11 6 0 10 -2 10 -4z"/>
<path d="M807 1323 c18 -2 50 -2 70 0 21 2 7 4 -32 4 -38 0 -55 -2 -38 -4z"/>
<path d="M805 1271 c-16 -19 -16 -20 4 -18 11 0 18 3 16 6 -3 2 0 10 6 18 18
21 -6 15 -26 -6z"/>
<path d="M898 1265 c-3 -14 -1 -28 3 -31 5 -3 9 9 9 25 0 38 -6 40 -12 6z"/>
<path d="M944 1258 c-4 -13 -7 -26 -6 -30 1 -5 -7 -8 -17 -8 -11 0 -23 -5 -27
-11 -3 -6 -19 -9 -34 -7 -21 3 -26 1 -23 -12 3 -12 12 -16 29 -12 13 2 32 -2
41 -9 15 -13 15 -12 5 8 -13 24 -3 37 21 27 11 -4 16 4 19 33 6 45 3 53 -8 21z"/>
<path d="M592 1243 c32 -2 84 -2 116 0 31 2 5 3 -58 3 -63 0 -89 -1 -58 -3z"/>
<path d="M851 1241 c-8 -6 -9 -11 -3 -15 6 -3 14 -1 17 5 9 14 2 20 -14 10z"/>
<path d="M932 1165 c0 -16 2 -22 5 -12 2 9 2 23 0 30 -3 6 -5 -1 -5 -18z"/>
<path d="M1339 1183 c-9 -2 -20 -19 -26 -37 l-10 -33 44 -1 c36 0 43 3 39 15
-3 8 -9 26 -12 39 -3 13 -9 23 -13 23 -3 -1 -13 -3 -22 -6z"/>
<path d="M490 1175 c0 -17 46 -65 62 -65 21 0 22 8 8 44 -7 20 -16 26 -40 26
-16 0 -30 -2 -30 -5z"/>
<path d="M715 1150 c-19 -36 -19 -40 0 -40 12 0 45 47 45 65 0 17 -32 0 -45
-25z"/>
<path d="M996 1171 c-26 -5 -28 -7 -13 -20 10 -7 17 -20 17 -27 0 -8 10 -14
25 -14 22 0 25 4 25 35 0 37 -2 38 -54 26z"/>
<path d="M1490 1171 c0 -6 5 -13 10 -16 6 -3 10 -15 10 -26 0 -14 7 -19 25
-19 18 0 25 5 25 20 0 15 7 20 29 20 15 0 40 -9 54 -20 32 -25 60 -26 55 -2
-5 29 -66 52 -140 52 -38 0 -68 -4 -68 -9z"/>
<path d="M868 1143 c7 -3 16 -2 19 1 4 3 -2 6 -13 5 -11 0 -14 -3 -6 -6z"/>
<path d="M870 1120 l-55 -7 58 -1 c32 -1 57 2 57 8 0 6 -1 9 -2 8 -2 -1 -28
-4 -58 -8z"/>
<path d="M540 1076 c0 -3 14 -42 30 -88 17 -45 30 -88 30 -95 0 -9 -35 -13
-142 -16 -79 -1 -30 -3 107 -3 138 0 206 2 152 3 -76 3 -97 7 -89 16 6 7 28
51 50 100 36 76 38 87 23 87 -13 0 -25 -17 -41 -60 -12 -33 -26 -63 -31 -66
-4 -2 -16 24 -27 58 -14 50 -22 64 -40 66 -12 2 -22 1 -22 -2z"/>
<path d="M860 1005 l0 -75 -36 0 -35 0 22 -31 22 -32 -24 -18 c-24 -19 -24
-19 56 -18 69 0 78 2 63 13 -10 7 -18 16 -18 20 0 3 251 7 558 8 383 2 485 4
327 8 -145 3 -215 8 -189 12 73 13 127 75 104 119 -15 28 -77 51 -117 43 -26
-5 -33 -3 -33 10 0 10 -9 16 -25 16 -25 0 -25 0 -25 -94 0 -66 4 -96 13 -99 6
-3 -64 -6 -158 -6 -93 0 -165 3 -159 7 6 4 19 21 28 39 21 43 43 53 111 53
l56 0 19 -45 c11 -25 26 -45 35 -45 20 0 20 1 -16 102 -28 77 -35 88 -56 88
-23 0 -23 -1 -9 -35 l15 -35 -55 0 -55 0 16 30 c19 36 19 42 0 38 -7 -2 -36
-46 -63 -98 l-50 -95 -53 -1 c-40 -1 -43 0 -14 3 63 7 67 23 5 23 -80 0 -84 5
-78 94 5 74 5 76 -19 76 -23 0 -23 -2 -23 -100 l0 -100 -40 0 c-38 0 -39 1
-28 20 10 16 10 22 1 28 -7 4 -13 39 -16 82 l-3 75 -2 -77 c-1 -44 -6 -78 -12
-78 -6 0 -8 17 -5 40 3 22 1 40 -4 40 -10 0 -8 40 3 58 5 8 0 12 -13 12 -19 0
-21 -6 -21 -75z m790 7 c33 -27 21 -69 -25 -88 -65 -27 -81 -13 -69 63 6 41 8
43 39 43 18 0 43 -8 55 -18z"/>
<path d="M1645 1070 c-3 -5 1 -10 9 -10 8 0 18 5 21 10 3 6 -1 10 -9 10 -8 0
-18 -4 -21 -10z"/>
<path d="M1010 735 c0 -7 30 -13 34 -7 3 4 -4 9 -15 9 -10 1 -19 0 -19 -2z"/>
</g>
</svg>
