<svg width="299" height="169" version="1.1" xmlns="http://www.w3.org/2000/svg" desc="Created with imagetracer.js version 1.2.6" ><path fill="rgb(0,0,0)" stroke="rgb(0,0,0)" stroke-width="1" opacity="1" d="M 0 0 L 299 0 L 299 169 L 0 169 L 0 0 Z M 211 14 L 211 19 L 216 19 L 216 20 L 216 34 L 222 34 L 222 19 L 227 19 L 227 15 L 227 14 L 211 14 Z M 229 14 L 229 31 L 230 33 L 235 35 Q 240 36 243 34 L 246 30 L 246 14 L 240 14 L 240 30 L 238 31 L 234 29 L 234 14 L 229 14 Z M 247 14 L 247 34 L 253 34 L 253 27 L 259 27 L 259 34 L 265 34 L 265 34 L 265 14 L 259 14 L 259 22 L 253 22 L 253 14 L 247 14 Z M 267 14 L 267 28 L 266 29 L 266 34 L 272 34 L 272 27 L 278 27 L 278 34 L 284 34 L 284 15 Q 284 13 280 14 L 278 16 L 278 22 L 272 22 L 272 14 L 267 14 Z M 12 15 L 12 19 L 17 19 L 17 20 L 17 35 L 23 35 L 23 20 L 24 19 L 28 19 Q 28 15 28 15 L 12 15 Z M 29 15 L 29 30 L 31 34 L 37 36 L 43 35 L 46 32 L 46 16 L 46 15 L 41 15 L 41 30 L 40 31 Q 36 32 35 30 L 35 15 L 29 15 Z M 48 15 L 48 35 L 53 35 L 53 27 L 60 27 L 60 35 L 65 35 L 65 35 L 65 15 L 60 15 L 60 23 L 53 23 Q 52 20 54 19 L 54 15 L 48 15 Z M 67 15 L 67 35 L 73 35 L 73 27 L 79 27 L 79 35 L 85 35 L 85 35 L 85 15 L 79 15 L 79 23 L 73 23 L 73 15 L 67 15 Z M 111 15 L 111 19 L 117 19 L 117 20 L 117 35 L 122 35 L 122 35 L 122 19 L 128 19 Q 128 15 128 15 L 111 15 Z M 129 15 L 129 31 L 130 33 L 134 35 Q 140 36 144 34 L 146 31 L 146 16 L 146 15 L 141 15 L 141 28 L 139 31 Q 136 32 135 30 L 135 15 L 129 15 Z M 148 15 L 148 35 L 153 35 L 153 27 L 159 27 L 159 35 L 165 35 L 165 35 L 165 15 L 160 15 L 160 22 L 153 22 L 153 15 L 148 15 Z M 167 15 L 167 35 L 172 35 L 172 27 L 179 27 L 179 35 L 184 35 L 184 35 L 184 15 L 179 15 L 179 22 L 172 22 L 172 15 L 167 15 Z M 118 37 L 118 38 L 118 37 Z M 131 37 Q 129 40 131 42 L 133 41 L 134 42 L 135 42 L 135 39 L 133 40 L 131 37 Z M 181 37 L 180 42 L 182 42 L 182 40 L 185 42 L 184 41 L 184 39 L 181 39 L 181 37 Z M 208 37 L 208 38 L 211 38 L 208 37 Z M 217 37 L 214 39 L 216 39 L 217 41 L 217 40 Q 219 38 217 37 Z M 224 37 L 224 38 L 224 37 Z M 239 37 L 239 38 L 239 37 Z M 241 37 L 240 41 Q 241 43 242 42 L 241 37 Z M 246 37 L 246 38 L 246 37 Z M 258 37 L 258 38 L 258 37 Z M 261 37 L 261 39 Q 262 40 263 38 L 261 37 Z M 265 37 L 264 39 L 265 39 L 265 37 Z M 269 37 L 268 40 Q 271 39 270 42 Q 271 43 272 41 L 271 39 L 270 39 L 269 37 Z M 281 37 L 280 39 L 282 41 L 284 40 L 281 37 Z M 9 38 L 10 41 L 11 39 L 9 38 Z M 18 38 L 15 39 L 15 40 Q 19 38 18 42 L 19 42 Q 20 39 18 38 Z M 31 38 L 31 41 Q 34 40 31 38 Z M 39 38 L 38 42 L 39 42 L 39 38 Z M 42 38 L 41 40 L 43 42 L 43 41 L 44 40 L 46 42 L 46 41 L 42 38 Z M 47 38 L 46 40 L 47 40 L 47 38 Z M 60 38 L 59 39 L 53 40 L 55 40 Q 56 42 57 40 L 58 42 L 58 41 L 60 41 L 61 40 L 63 42 L 64 40 L 65 42 L 66 40 L 62 38 Q 61 40 60 38 Z M 72 38 L 71 41 L 72 41 L 72 38 Z M 110 38 L 109 40 L 110 40 L 110 38 Z M 124 38 Q 122 41 125 40 Q 126 39 124 38 Z M 139 38 L 138 40 L 139 40 L 139 38 Z M 146 38 L 146 42 L 146 41 Q 148 39 146 38 Z M 158 38 L 157 40 L 158 40 L 158 38 Z M 160 38 L 160 39 L 160 38 Z M 165 38 L 164 42 L 165 42 L 165 38 Z M 169 38 L 168 41 L 170 40 L 171 42 L 171 39 L 169 38 Z M 172 38 L 172 39 L 172 38 Z M 212 38 L 212 39 L 212 38 Z M 226 38 L 226 39 L 226 38 Z M 229 38 L 229 41 Q 226 42 227 40 Q 226 38 225 41 Q 226 43 230 42 L 230 38 L 229 38 Z M 234 38 L 234 39 L 234 38 Z M 244 38 L 243 42 L 245 42 L 244 38 Z M 251 38 L 251 39 L 251 38 Z M 254 38 L 254 39 L 254 38 Z M 256 38 L 256 39 L 256 38 Z M 259 38 L 258 42 L 265 42 Q 266 41 264 40 L 262 41 Q 261 39 260 41 L 259 38 Z M 274 38 L 273 41 L 273 42 L 275 42 L 274 38 Z M 277 38 L 275 40 L 276 42 L 277 42 L 277 38 Z M 279 38 Q 277 41 280 42 L 281 42 L 279 38 Z M 288 38 L 288 39 L 288 38 Z M 290 38 L 290 39 L 290 38 Z M 11 39 L 11 41 L 14 41 L 11 39 Z M 20 39 L 20 41 Q 21 42 22 40 L 20 39 Z M 24 39 L 23 42 L 24 42 L 24 39 Z M 25 39 L 25 41 Q 26 42 27 40 L 25 39 Z M 29 39 L 29 40 L 29 39 Z M 34 39 L 32 41 Q 34 44 35 41 Q 36 38 34 39 Z M 50 39 L 49 40 Q 46 39 47 42 L 49 41 L 50 42 L 52 41 Q 53 38 50 39 Z M 69 39 L 68 42 L 69 42 L 69 39 Z M 73 39 L 73 41 L 76 42 L 76 41 L 73 39 Z M 77 39 L 77 42 L 78 42 Q 77 39 80 40 L 81 42 L 82 40 L 82 42 Q 85 43 84 41 L 83 39 L 77 39 Z M 86 39 L 85 42 L 87 42 L 86 39 Z M 88 39 Q 87 41 90 40 L 91 41 Q 92 37 88 39 Z M 112 39 L 110 42 L 117 42 L 117 41 L 118 41 Q 117 43 120 42 L 119 39 Q 115 38 116 41 L 112 39 Z M 115 39 L 115 40 L 115 39 Z M 121 39 L 121 41 Q 120 43 123 42 L 122 41 Q 123 38 121 39 Z M 128 39 L 128 40 L 128 39 Z M 141 39 L 140 41 L 139 41 L 139 42 L 142 42 L 141 39 Z M 143 39 L 143 42 L 144 42 Q 145 38 143 39 Z M 149 39 L 149 42 L 153 42 Q 152 39 155 40 L 155 39 Q 151 38 151 40 L 149 39 Z M 161 39 Q 162 42 160 41 L 158 41 L 158 42 L 163 42 Q 164 38 161 39 Z M 173 39 Q 170 43 175 42 L 175 42 L 173 39 Z M 175 39 L 175 41 L 177 40 Q 179 39 178 42 L 179 42 L 179 39 L 175 39 Z M 185 39 L 187 42 L 188 40 L 188 42 Q 191 43 190 41 Q 189 38 185 39 Z M 191 39 L 191 40 L 191 39 Z M 209 39 L 208 42 L 209 42 L 209 39 Z M 211 39 L 210 42 L 212 42 L 211 39 Z M 213 39 L 213 41 Q 212 43 215 42 L 214 41 Q 215 38 213 39 Z M 219 39 L 219 42 L 220 42 Q 221 38 219 39 Z M 222 39 Q 220 41 223 42 L 225 42 L 222 39 Z M 224 39 L 224 40 L 225 40 L 224 39 Z M 231 39 Q 230 42 233 41 Q 234 38 231 39 Z M 235 39 L 235 40 L 235 39 Z M 238 39 L 237 41 L 238 41 L 238 39 Z M 246 39 Q 244 40 247 41 L 248 41 L 246 39 Z M 249 39 L 249 40 L 250 40 L 249 39 Z M 253 39 L 252 41 L 253 41 L 253 39 Z M 255 39 L 255 40 L 255 39 Z M 263 39 L 263 40 L 263 39 Z M 287 39 L 286 41 L 287 41 L 287 39 Z M 289 39 L 287 43 L 290 43 Q 291 40 289 39 Z M 28 40 L 26 42 L 28 42 L 28 40 Z M 109 40 L 108 42 L 109 42 L 109 40 Z M 126 40 Q 123 41 125 42 L 127 41 L 126 40 Z M 130 40 L 127 42 L 130 42 L 130 40 Z M 148 40 L 147 42 L 148 42 L 148 40 Z M 156 40 L 154 42 L 157 42 Q 158 41 156 40 Z M 256 40 L 255 41 Q 256 43 257 42 Q 258 39 256 40 Z M 268 40 L 267 42 L 268 42 L 268 40 Z M 285 40 L 283 42 L 285 42 L 285 40 Z M 17 41 L 17 42 L 17 41 Z M 22 41 L 22 42 L 22 41 Z M 32 41 L 32 42 L 32 41 Z M 41 41 L 41 42 L 41 41 Z M 53 41 L 53 42 L 53 41 Z M 73 41 L 73 42 L 73 41 Z M 89 41 L 88 44 L 90 44 L 89 41 Z M 177 41 L 177 42 L 177 41 Z M 218 41 L 218 42 L 218 41 Z M 234 41 L 234 42 L 234 41 Z M 239 41 L 239 42 L 240 42 L 239 41 Z M 250 41 L 250 42 L 251 42 L 250 41 Z M 255 41 L 255 42 L 255 41 Z M 91 42 L 91 43 L 91 42 Z M 191 42 L 191 43 L 191 42 Z " /><path fill="rgb(14,21,13)" stroke="rgb(14,21,13)" stroke-width="1" opacity="1" d="M 252.5 14 L 252.5 15 L 252.5 14 Z " /><path fill="rgb(14,21,13)" stroke="rgb(14,21,13)" stroke-width="1" opacity="1" d="M 29.5 15 L 30 18.5 L 29 18.5 L 29.5 15 Z " /><path fill="rgb(14,21,13)" stroke="rgb(14,21,13)" stroke-width="1" opacity="1" d="M 53.5 15 L 53.5 16 L 53.5 15 Z " /><path fill="rgb(14,21,13)" stroke="rgb(14,21,13)" stroke-width="1" opacity="1" d="M 84.5 15 L 84.5 16 L 84.5 15 Z " /><path fill="rgb(14,21,13)" stroke="rgb(14,21,13)" stroke-width="1" opacity="1" d="M 247.5 17 L 247.5 18 L 247.5 17 Z " /><path fill="rgb(14,21,13)" stroke="rgb(14,21,13)" stroke-width="1" opacity="1" d="M 134.5 18 L 135 26.5 L 134 26.5 L 134.5 18 Z " /><path fill="rgb(14,21,13)" stroke="rgb(14,21,13)" stroke-width="1" opacity="1" d="M 278.5 18 L 279 21.5 L 278 21.5 L 278.5 18 Z " /><path fill="rgb(14,21,13)" stroke="rgb(14,21,13)" stroke-width="1" opacity="1" d="M 247.5 20 L 247.5 21 L 247.5 20 Z " /><path fill="rgb(14,21,13)" stroke="rgb(14,21,13)" stroke-width="1" opacity="1" d="M 172.5 22 L 172.5 23 L 172.5 22 Z " /><path fill="rgb(14,21,13)" stroke="rgb(14,21,13)" stroke-width="1" opacity="1" d="M 216.5 24 L 217 33.5 L 216 33.5 L 216.5 24 Z " /><path fill="rgb(14,21,13)" stroke="rgb(14,21,13)" stroke-width="1" opacity="1" d="M 264.5 24 L 264.5 25 L 264.5 24 Z " /><path fill="rgb(14,21,13)" stroke="rgb(14,21,13)" stroke-width="1" opacity="1" d="M 245.5 26 L 246 27.5 L 245 27.5 L 245.5 26 Z " /><path fill="rgb(14,21,13)" stroke="rgb(14,21,13)" stroke-width="1" opacity="1" d="M 272.5 26 L 272.5 27 L 272.5 26 Z " /><path fill="rgb(14,21,13)" stroke="rgb(14,21,13)" stroke-width="1" opacity="1" d="M 264.5 27 L 265 28.5 L 264 28.5 L 264.5 27 Z " /><path fill="rgb(14,21,13)" stroke="rgb(14,21,13)" stroke-width="1" opacity="1" d="M 278.5 27 L 279 31.5 L 278 31.5 L 278.5 27 Z " /><path fill="rgb(14,21,13)" stroke="rgb(14,21,13)" stroke-width="1" opacity="1" d="M 29.5 28 L 30 29.5 L 29 29.5 L 29.5 28 Z " /><path fill="rgb(14,21,13)" stroke="rgb(14,21,13)" stroke-width="1" opacity="1" d="M 140.5 28 L 140.5 29 L 140.5 28 Z " /><path fill="rgb(14,21,13)" stroke="rgb(14,21,13)" stroke-width="1" opacity="1" d="M 72.5 29 L 72.5 30 L 72.5 29 Z " /><path fill="rgb(14,21,13)" stroke="rgb(14,21,13)" stroke-width="1" opacity="1" d="M 129.5 30 L 129.5 31 L 129.5 30 Z " /><path fill="rgb(14,21,13)" stroke="rgb(14,21,13)" stroke-width="1" opacity="1" d="M 135.5 30 L 135.5 31 L 135.5 30 Z " /><path fill="rgb(14,21,13)" stroke="rgb(14,21,13)" stroke-width="1" opacity="1" d="M 238.5 30 L 238.5 31 L 238.5 30 Z " /><path fill="rgb(14,21,13)" stroke="rgb(14,21,13)" stroke-width="1" opacity="1" d="M 37.5 31 L 39 31.5 L 37.5 32 L 37.5 31 Z " /><path fill="rgb(14,21,13)" stroke="rgb(14,21,13)" stroke-width="1" opacity="1" d="M 45.5 31 L 45.5 32 L 45.5 31 Z " /><path fill="rgb(14,21,13)" stroke="rgb(14,21,13)" stroke-width="1" opacity="1" d="M 72.5 31 L 72.5 32 L 72.5 31 Z " /><path fill="rgb(14,21,13)" stroke="rgb(14,21,13)" stroke-width="1" opacity="1" d="M 159.5 31 L 160 34.5 L 159 34.5 L 159.5 31 Z " /><path fill="rgb(14,21,13)" stroke="rgb(14,21,13)" stroke-width="1" opacity="1" d="M 266.5 31 L 267 33.5 L 266 33.5 L 266.5 31 Z " /><path fill="rgb(14,21,13)" stroke="rgb(14,21,13)" stroke-width="1" opacity="1" d="M 144.5 32 Q 146 33 143.5 34 Q 142 33 144.5 32 Z " /><path fill="rgb(14,21,13)" stroke="rgb(14,21,13)" stroke-width="1" opacity="1" d="M 84.5 33 L 85 34.5 L 84 34.5 L 84.5 33 Z " /><path fill="rgb(14,21,13)" stroke="rgb(14,21,13)" stroke-width="1" opacity="1" d="M 42.5 34 L 42.5 35 L 42.5 34 Z " /><path fill="rgb(14,21,13)" stroke="rgb(14,21,13)" stroke-width="1" opacity="1" d="M 72.5 34 L 72.5 35 L 72.5 34 Z " /><path fill="rgb(14,21,13)" stroke="rgb(14,21,13)" stroke-width="1" opacity="1" d="M 133.5 34 L 133.5 35 L 133.5 34 Z " /><path fill="rgb(14,21,13)" stroke="rgb(14,21,13)" stroke-width="1" opacity="1" d="M 141.5 34 L 141.5 35 L 141.5 34 Z " /><path fill="rgb(14,21,13)" stroke="rgb(14,21,13)" stroke-width="1" opacity="1" d="M 234.5 34 L 234.5 35 L 234.5 34 Z " /><path fill="rgb(14,21,13)" stroke="rgb(14,21,13)" stroke-width="1" opacity="1" d="M 240.5 34 L 240.5 35 L 240.5 34 Z " /><path fill="rgb(14,21,13)" stroke="rgb(14,21,13)" stroke-width="1" opacity="1" d="M 37.5 35 L 37.5 36 L 37.5 35 Z " /><path fill="rgb(14,21,13)" stroke="rgb(14,21,13)" stroke-width="1" opacity="1" d="M 39.5 35 L 39.5 36 L 39.5 35 Z " /><path fill="rgb(14,21,13)" stroke="rgb(14,21,13)" stroke-width="1" opacity="1" d="M 117.5 37 L 117.5 38 L 117.5 37 Z " /><path fill="rgb(14,21,13)" stroke="rgb(14,21,13)" stroke-width="1" opacity="1" d="M 130.5 37 L 132.5 40 L 135 39 L 135 42 L 133.5 42 L 132.5 41 L 131 41.5 L 130.5 40 L 130 42 Q 127.42 42.75 126.5 41 L 124.5 42 L 124.5 40 Q 122.25 40.75 123 38.5 L 123.5 38 L 125.5 40 L 127.5 39 L 127.5 41 L 130 39.5 L 130.5 37 Z " /><path fill="rgb(14,21,13)" stroke="rgb(14,21,13)" stroke-width="1" opacity="1" d="M 180.5 37 L 182 41.5 L 180 42 L 180.5 37 Z " /><path fill="rgb(14,21,13)" stroke="rgb(14,21,13)" stroke-width="1" opacity="1" d="M 207.5 37 L 210.5 37 Q 211.5 39.5 214 39 L 215 41.5 L 213 42 L 211.5 39 L 211 40.5 L 211.5 42 Q 208.88 42.83 210 39.5 L 210.5 38 Q 206.5 38.75 207.5 37 Z " /><path fill="rgb(14,21,13)" stroke="rgb(14,21,13)" stroke-width="1" opacity="1" d="M 216.5 37 L 218 41.5 Q 217 43 216 40.5 L 215 38.5 L 216.5 37 Z " /><path fill="rgb(14,21,13)" stroke="rgb(14,21,13)" stroke-width="1" opacity="1" d="M 223.5 37 L 223.5 38 L 223.5 37 Z " /><path fill="rgb(14,21,13)" stroke="rgb(14,21,13)" stroke-width="1" opacity="1" d="M 238.5 37 L 238.5 38 L 238.5 37 Z " /><path fill="rgb(14,21,13)" stroke="rgb(14,21,13)" stroke-width="1" opacity="1" d="M 240.5 37 L 242 41.5 L 240.5 41 L 239.5 42 L 237 40.5 L 237.5 39 L 238 41 L 240 41 L 240.5 37 Z " /><path fill="rgb(14,21,13)" stroke="rgb(14,21,13)" stroke-width="1" opacity="1" d="M 245.5 37 L 245.5 38 L 245.5 37 Z " /><path fill="rgb(14,21,13)" stroke="rgb(14,21,13)" stroke-width="1" opacity="1" d="M 257.5 37 L 259.5 41 Q 260.5 39 261.5 41 L 263 40.5 Q 260.5 39.5 261 37 L 263 37.5 L 262 38.5 L 265 41.5 L 264.5 42 Q 263.5 40 262.5 42 L 258 42 L 258 38.5 L 257.5 37 Z " /><path fill="rgb(14,21,13)" stroke="rgb(14,21,13)" stroke-width="1" opacity="1" d="M 264.5 37 L 265 38.5 L 264 38.5 L 264.5 37 Z " /><path fill="rgb(14,21,13)" stroke="rgb(14,21,13)" stroke-width="1" opacity="1" d="M 268.5 37 L 269.5 39 L 271 38.5 L 272.5 41 L 273.5 38 L 275 41.5 L 272.5 42 L 271.5 41 L 270 41.5 Q 270.67 38.88 268 40 L 267.5 42 L 267 40.5 L 268.5 37 Z " /><path fill="rgb(14,21,13)" stroke="rgb(14,21,13)" stroke-width="1" opacity="1" d="M 280.5 37 L 285 40.5 Q 285.75 42.75 283.5 42 L 283.5 40 L 279.5 42 Q 277.5 41.5 278 38.5 L 279 38.5 L 280.5 41 L 281 39.5 Q 279.25 38.75 280.5 37 Z " /><path fill="rgb(14,21,13)" stroke="rgb(14,21,13)" stroke-width="1" opacity="1" d="M 8.5 38 L 10.5 38 L 13.5 40 L 17.5 38 Q 19.5 38.5 19 41.5 L 18 41.5 Q 18.87 38.5 14.5 40 Q 13.58 41.75 11 41 L 10.5 39 L 9.5 41 L 8.5 38 Z " /><path fill="rgb(14,21,13)" stroke="rgb(14,21,13)" stroke-width="1" opacity="1" d="M 30.5 38 Q 32 41.5 33.5 39 Q 35.75 38.25 35 40.5 L 33.5 42 Q 32.5 40 31.5 42 L 30 40.5 L 30.5 38 Z M 32 40 L 32 41 L 32 40 Z " /><path fill="rgb(14,21,13)" stroke="rgb(14,21,13)" stroke-width="1" opacity="1" d="M 38.5 38 L 39 41.5 L 38 41.5 L 38.5 38 Z " /><path fill="rgb(14,21,13)" stroke="rgb(14,21,13)" stroke-width="1" opacity="1" d="M 41.5 38 L 45.5 40 L 46.5 38 L 47 40 L 52 39 L 53 41.5 L 51.5 41 L 49.5 42 L 48.5 41 L 47 41.5 L 46.5 40 L 45.5 42 L 43.5 40 L 43 40.5 L 42.5 42 L 41 39.5 L 41.5 38 Z " /><path fill="rgb(14,21,13)" stroke="rgb(14,21,13)" stroke-width="1" opacity="1" d="M 59.5 38 Q 60.5 40 61.5 38 Q 64.5 37.12 63 41.5 L 62.5 42 L 60.5 40 L 59.5 41 L 58 40.5 L 57.5 42 L 56.5 40 Q 55.5 42 54.5 40 L 53 39.5 L 58.5 39 L 59.5 38 Z " /><path fill="rgb(14,21,13)" stroke="rgb(14,21,13)" stroke-width="1" opacity="1" d="M 71.5 38 L 72.5 41 L 73 39 L 75.5 40 L 76.5 39 L 82.5 39 L 84 42 Q 81.33 43.13 82 40.5 L 81 40.5 L 80.5 42 L 80 40 Q 77.33 38.88 78 41.5 L 77 41.5 L 76.5 40 L 75.5 42 L 73.5 41 Q 72.25 43.25 71 40.5 L 71.5 38 Z " /><path fill="rgb(14,21,13)" stroke="rgb(14,21,13)" stroke-width="1" opacity="1" d="M 109.5 38 L 110.5 40 L 112.5 39 L 113.5 40 L 115 39.5 L 114.5 41 Q 117.13 41.67 116 39 L 118.5 39 Q 119.5 41 120.5 39 Q 123.13 38.17 122 41.5 L 121 41.5 L 120.5 40 L 120 42 Q 117.33 43.13 118 40.5 L 117 40.5 L 116.5 42 L 110 42 L 109.5 38 Z " /><path fill="rgb(14,21,13)" stroke="rgb(14,21,13)" stroke-width="1" opacity="1" d="M 138.5 38 L 139 39.5 L 138 39.5 L 138.5 38 Z " /><path fill="rgb(14,21,13)" stroke="rgb(14,21,13)" stroke-width="1" opacity="1" d="M 145.5 38 Q 147 41.5 148.5 39 L 150.5 40 Q 151.25 38.25 154.5 39 L 156 42 L 154 41.5 L 154.5 40 Q 151.88 39.33 153 42 L 149 42 L 148.5 40 L 147.5 42 L 146.5 40 L 145.5 42 L 145.5 38 Z " /><path fill="rgb(14,21,13)" stroke="rgb(14,21,13)" stroke-width="1" opacity="1" d="M 157.5 38 L 159.5 41 Q 162.13 41.67 161 39 L 163 39 L 163 42 L 158 42 L 157.5 38 Z " /><path fill="rgb(14,21,13)" stroke="rgb(14,21,13)" stroke-width="1" opacity="1" d="M 159.5 38 L 159.5 39 L 159.5 38 Z " /><path fill="rgb(14,21,13)" stroke="rgb(14,21,13)" stroke-width="1" opacity="1" d="M 164.5 38 L 165 41.5 L 164 41.5 L 164.5 38 Z " /><path fill="rgb(14,21,13)" stroke="rgb(14,21,13)" stroke-width="1" opacity="1" d="M 168.5 38 L 170.5 39 L 171.5 38 L 174.5 41 L 175 40.5 L 175 39 L 179 39 L 178.5 42 L 178 40 L 176 40.5 L 176.5 42 Q 175.5 40 174.5 42 Q 170.75 43.25 172 39.5 L 171 39.5 L 170.5 42 L 169.5 40 L 168 40.5 L 168.5 38 Z " /><path fill="rgb(14,21,13)" stroke="rgb(14,21,13)" stroke-width="1" opacity="1" d="M 225.5 38 L 228 41.5 L 226.5 42 L 225.5 41 L 224 41.5 L 224.5 40 Q 222.25 39.25 223 41.5 Q 222 43 221 40.5 L 221.5 39 Q 222.5 41 223.5 39 L 225.5 38 Z M 226 39 L 226 40 L 226 39 Z " /><path fill="rgb(14,21,13)" stroke="rgb(14,21,13)" stroke-width="1" opacity="1" d="M 228.5 38 Q 231.5 37.12 230 41.5 L 229 41.5 L 228.5 38 Z " /><path fill="rgb(14,21,13)" stroke="rgb(14,21,13)" stroke-width="1" opacity="1" d="M 233.5 38 Q 236 39 234.5 40 L 233 39.5 L 234 41.5 L 232.5 41 Q 229.88 41.67 231 39 L 233.5 38 Z " /><path fill="rgb(14,21,13)" stroke="rgb(14,21,13)" stroke-width="1" opacity="1" d="M 243.5 38 L 245 41.5 L 243 42 L 243.5 38 Z " /><path fill="rgb(14,21,13)" stroke="rgb(14,21,13)" stroke-width="1" opacity="1" d="M 250.5 38 Q 252 39 249.5 40 L 246.5 41 Q 244 40 245.5 39 L 247.5 40 L 250.5 38 Z " /><path fill="rgb(14,21,13)" stroke="rgb(14,21,13)" stroke-width="1" opacity="1" d="M 253.5 38 L 254.5 39 L 256 38.5 L 255.5 40 Q 257.75 39.25 257 41.5 L 254 41.5 Q 256.25 40.25 253.5 39 L 252.5 41 L 252 39.5 L 253.5 38 Z " /><path fill="rgb(14,21,13)" stroke="rgb(14,21,13)" stroke-width="1" opacity="1" d="M 276.5 38 L 277 41.5 L 276 41.5 L 275 39.5 L 276.5 38 Z " /><path fill="rgb(14,21,13)" stroke="rgb(14,21,13)" stroke-width="1" opacity="1" d="M 287.5 38 L 288.5 39 L 290 38.5 Q 288 39.5 290 40.5 Q 291.25 44.25 287.5 43 L 288 41.5 L 287.5 39 L 286.5 41 L 286 39.5 L 287.5 38 Z " /><path fill="rgb(14,21,13)" stroke="rgb(14,21,13)" stroke-width="1" opacity="1" d="M 20 39 L 22 39.5 L 21 40.5 L 21.5 42 L 20 39 Z " /><path fill="rgb(14,21,13)" stroke="rgb(14,21,13)" stroke-width="1" opacity="1" d="M 23.5 39 L 24 41.5 L 23 41.5 L 23.5 39 Z " /><path fill="rgb(14,21,13)" stroke="rgb(14,21,13)" stroke-width="1" opacity="1" d="M 25 39 L 27.5 40 L 29 39.5 L 28 42 L 25 40.5 L 25 39 Z M 27 40 L 27 41 L 27 40 Z " /><path fill="rgb(14,21,13)" stroke="rgb(14,21,13)" stroke-width="1" opacity="1" d="M 64 39 L 66 39.5 L 64.5 42 L 64 39 Z " /><path fill="rgb(14,21,13)" stroke="rgb(14,21,13)" stroke-width="1" opacity="1" d="M 68.5 39 L 69 41.5 L 68 41.5 L 68.5 39 Z " /><path fill="rgb(14,21,13)" stroke="rgb(14,21,13)" stroke-width="1" opacity="1" d="M 85.5 39 L 87 41.5 L 85 42 L 85.5 39 Z " /><path fill="rgb(14,21,13)" stroke="rgb(14,21,13)" stroke-width="1" opacity="1" d="M 87.5 39 Q 91.87 37.5 91 40.5 L 89.5 40 Q 86.5 40.5 87.5 39 Z " /><path fill="rgb(14,21,13)" stroke="rgb(14,21,13)" stroke-width="1" opacity="1" d="M 140.5 39 L 142 41.5 L 138.5 42 L 138.5 41 L 140 41 L 140.5 39 Z " /><path fill="rgb(14,21,13)" stroke="rgb(14,21,13)" stroke-width="1" opacity="1" d="M 142.5 39 Q 145.13 38.17 144 41.5 L 143 41.5 L 142.5 39 Z " /><path fill="rgb(14,21,13)" stroke="rgb(14,21,13)" stroke-width="1" opacity="1" d="M 182.5 39 Q 184.75 38.25 184 40.5 L 185 40.5 Q 184.12 37.5 188.5 39 L 189.5 40 L 191 39.5 L 190 41.5 L 190.5 43 L 188 42 L 187.5 40 L 186.5 42 Q 185.5 40 184.5 42 Q 182.25 42.75 183 40.5 L 182.5 39 Z " /><path fill="rgb(14,21,13)" stroke="rgb(14,21,13)" stroke-width="1" opacity="1" d="M 208.5 39 L 209 41.5 L 208 41.5 L 208.5 39 Z " /><path fill="rgb(14,21,13)" stroke="rgb(14,21,13)" stroke-width="1" opacity="1" d="M 218.5 39 Q 221.12 38.17 220 41.5 L 219 41.5 L 218.5 39 Z " /><path fill="rgb(14,21,13)" stroke="rgb(14,21,13)" stroke-width="1" opacity="1" d="M 16.5 41 L 16.5 42 L 16.5 41 Z " /><path fill="rgb(14,21,13)" stroke="rgb(14,21,13)" stroke-width="1" opacity="1" d="M 40.5 41 L 40.5 42 L 40.5 41 Z " /><path fill="rgb(14,21,13)" stroke="rgb(14,21,13)" stroke-width="1" opacity="1" d="M 88.5 41 L 89.5 43 L 91 42.5 L 88 44 L 88.5 41 Z " /><path fill="rgb(14,21,13)" stroke="rgb(14,21,13)" stroke-width="1" opacity="1" d="M 108.5 41 L 108.5 42 L 108.5 41 Z " /><path fill="rgb(14,21,13)" stroke="rgb(14,21,13)" stroke-width="1" opacity="1" d="M 249.5 41 L 251 41.5 L 249.5 42 L 249.5 41 Z " /><path fill="rgb(1,1,1)" stroke="rgb(1,1,1)" stroke-width="1" opacity="1" d="M 211 14 L 226.5 14 L 227 14.5 L 227 19 L 222 19 L 222 34 L 217 34 L 217 24.5 L 216 23.5 L 216 19 L 211 19 L 211 14 Z " /><path fill="rgb(1,1,1)" stroke="rgb(1,1,1)" stroke-width="1" opacity="1" d="M 229 14 L 234 14 L 234 28.5 Q 234.5 31.5 238.5 31 L 240 29.5 L 240 14 L 246 14 L 246 25.5 L 245 27.5 L 246 29.5 L 242.5 34 L 235.5 35 L 230 33 L 229 30.5 L 229 14 Z " /><path fill="rgb(1,1,1)" stroke="rgb(1,1,1)" stroke-width="1" opacity="1" d="M 247 14 L 251.5 14 L 253 15.5 L 253 22 L 259 22 L 259 14 L 265 14 L 265 23.5 L 264 24.5 L 265 26.5 L 264 28.5 L 265 29.5 L 265 34 L 259 34 L 259 27 L 253 27 L 253 34 L 247 34 L 247 21.5 L 248 20.5 L 247 18.5 Q 249 17.5 247 16.5 L 247 14 Z " /><path fill="rgb(1,1,1)" stroke="rgb(1,1,1)" stroke-width="1" opacity="1" d="M 267 14 L 272 14 L 272 22 L 279 22 L 278 15.5 L 279.5 14 L 284 14 L 284 33.5 L 283.5 34 L 278 34 L 279 31.5 L 279 27 L 273.5 27 L 272.5 26 L 272 34 L 267 34 L 267 31.5 L 266 28.5 L 267 27.5 L 267 14 Z " /><path fill="rgb(1,1,1)" stroke="rgb(1,1,1)" stroke-width="1" opacity="1" d="M 12 15 L 27.5 15 Q 28.5 15.12 28 19 L 23.5 19 L 23 19.5 L 23 35 L 17 35 L 17 19.5 L 16.5 19 L 12 19 L 12 15 Z " /><path fill="rgb(1,1,1)" stroke="rgb(1,1,1)" stroke-width="1" opacity="1" d="M 30 15 L 35 15 L 35 29.5 L 38.5 32 L 41 29.5 L 41 15 L 45.5 15 L 46 15.5 L 46 30.5 L 43.5 34 L 38.5 36 L 35.5 35 L 31 34 L 30 31.5 L 30 28.5 L 29 27.5 L 29 19.5 Q 31 18.37 30 15 Z " /><path fill="rgb(1,1,1)" stroke="rgb(1,1,1)" stroke-width="1" opacity="1" d="M 48 15 L 52.5 15 L 54 16.5 L 53 23 L 60 23 L 60 15 L 65 15 L 65 34.5 L 64.5 35 L 60 35 L 60 27 L 53 27 L 53 35 L 48 35 L 48 15 Z " /><path fill="rgb(1,1,1)" stroke="rgb(1,1,1)" stroke-width="1" opacity="1" d="M 67 15 L 73 15 L 73 23 L 79 23 L 79 15 L 83.5 15 L 85 16.5 L 85 32.5 L 84 35 L 79 35 L 79 27 L 73 27 L 72 29.5 L 73 32.5 L 71.5 35 Q 67 35.5 67 34.5 L 67 15 Z " /><path fill="rgb(1,1,1)" stroke="rgb(1,1,1)" stroke-width="1" opacity="1" d="M 111 15 L 127.5 15 Q 128.5 15.12 128 19 L 122 19 L 122 34.5 L 121.5 35 L 117 35 L 117 19.5 L 116.5 19 L 111 19 L 111 15 Z " /><path fill="rgb(1,1,1)" stroke="rgb(1,1,1)" stroke-width="1" opacity="1" d="M 129 15 L 135 15 L 135 17.5 L 134 18.5 L 134 26.5 Q 136 27.62 135 31 Q 139.69 32 141 28.5 L 141 15 L 146 15 L 146 30.5 L 142.5 34 Q 140 36 134.5 35 L 130 32.5 L 129 29.5 L 129 15 Z " /><path fill="rgb(1,1,1)" stroke="rgb(1,1,1)" stroke-width="1" opacity="1" d="M 148 15 L 153 15 L 153 22 L 160 22 L 160 15 L 165 15 L 165 34.5 L 164.5 35 L 160 35 L 159 27 L 153 27 L 153 35 L 148 35 L 148 15 Z " /><path fill="rgb(1,1,1)" stroke="rgb(1,1,1)" stroke-width="1" opacity="1" d="M 167 15 L 172 15 L 172 22.5 L 173.5 22 L 179 22 L 179 15 L 184 15 L 184 34.5 L 183.5 35 L 179 35 L 179 27 L 172 27 L 172 35 L 167 35 L 167 15 Z " /><path fill="rgb(1,1,1)" stroke="rgb(1,1,1)" stroke-width="1" opacity="1" d="M 214.5 38 L 214.5 39 L 214.5 38 Z " /><path fill="rgb(1,1,1)" stroke="rgb(1,1,1)" stroke-width="1" opacity="1" d="M 217.5 38 L 217.5 39 L 217.5 38 Z " /><path fill="rgb(1,1,1)" stroke="rgb(1,1,1)" stroke-width="1" opacity="1" d="M 63.5 39 L 63.5 40 L 63.5 39 Z " /><path fill="rgb(1,1,1)" stroke="rgb(1,1,1)" stroke-width="1" opacity="1" d="M 181.5 39 Q 184 40 182.5 41 Q 180 40 181.5 39 Z " /><path fill="rgb(1,1,1)" stroke="rgb(1,1,1)" stroke-width="1" opacity="1" d="M 108.5 40 L 108.5 41 L 108.5 40 Z " /><path fill="rgb(1,1,1)" stroke="rgb(1,1,1)" stroke-width="1" opacity="1" d="M 122.5 41 L 122.5 42 L 122.5 41 Z " /><path fill="rgb(1,1,1)" stroke="rgb(1,1,1)" stroke-width="1" opacity="1" d="M 156.5 41 L 156.5 42 L 156.5 41 Z " /><path fill="rgb(1,1,1)" stroke="rgb(1,1,1)" stroke-width="1" opacity="1" d="M 223.5 41 L 223.5 42 L 223.5 41 Z " /><path fill="rgb(1,1,1)" stroke="rgb(1,1,1)" stroke-width="1" opacity="1" d="M 228.5 41 L 228.5 42 L 228.5 41 Z " /><path fill="rgb(1,1,1)" stroke="rgb(1,1,1)" stroke-width="1" opacity="1" d="M 263.5 41 L 263.5 42 L 263.5 41 Z " /></svg>