<svg width="226" height="197" viewBox="0 0 226 197" fill="none" xmlns="http://www.w3.org/2000/svg">
<path d="M113.807 164.173C122.301 169.201 124.27 173.718 124.27 180.422C124.27 190.005 116.468 197 106.043 197H170.711V131.345L113.807 164.173Z" fill="#575A60"/>
<path d="M170.711 0L125.29 39.4583L170.711 65.6545C170.82 55.7808 173.773 51.8459 179.569 48.494C187.844 43.7211 197.832 46.9638 203.045 55.963L170.711 0Z" fill="#D80C28"/>
<path d="M170.711 66.2739C170.711 69.4801 170.711 71.9212 170.711 71.9212V197L223.86 105.003C226.193 100.996 226.193 96.0407 223.86 91.9965L203.045 55.963C197.832 46.9637 187.881 43.6847 179.569 48.494C173.664 51.9188 170.711 55.963 170.711 66.2739Z" fill="#6F7278"/>
<path d="M121.353 170.367C123.613 173.354 124.27 176.524 124.27 180.422C124.27 190.005 116.469 197 106.043 197H99.3356H144.501L121.353 170.367Z" fill="#414449"/>
<path d="M33.7558 63.5414C28.7981 58.1855 28.0691 49.9878 32.2976 42.5917L0 98.5182L56.9037 131.346V90.1748L33.7558 63.5414Z" fill="#AAAAAA"/>
<path d="M37.5832 66.6019C36.0886 65.7639 34.8127 64.7073 33.7191 63.5414L56.9034 90.1748V65.691C48.3004 70.5003 43.4157 69.9538 37.5832 66.6019Z" fill="#898A8D"/>
<path d="M57.4503 65.3631C60.2207 63.7599 62.335 62.5212 62.335 62.5212L170.711 0H64.4129C59.7468 0 55.4818 2.47753 53.1488 6.4853L32.3339 42.5188C27.1211 51.518 29.3083 61.7925 37.5832 66.5654C43.5251 70.0266 48.4828 70.5367 57.4503 65.3631Z" fill="#EB0A1E"/>
<path d="M113.807 32.8273L125.29 39.4583L170.711 0L113.807 32.8273Z" fill="#AA182C"/>
<path d="M113.297 163.881C110.527 162.278 108.412 161.076 108.412 161.076L0 98.5182L53.149 190.515C55.482 194.522 59.7835 197 64.413 197H106.043C116.432 197 124.269 190.005 124.269 180.422C124.269 173.609 122.228 169.018 113.297 163.881Z" fill="#CCCCCC"/>
</svg>
